<?xml version="1.0" encoding="UTF-8" standalone="no"?>
<!-- Created with Inkscape (http://www.inkscape.org/) -->

<svg
   width="32.048435mm"
   height="33.44194mm"
   viewBox="0 0 32.048435 33.44194"
   version="1.1"
   id="svg2466"
   inkscape:version="1.1.1 (3bf5ae0d25, 2021-09-20)"
   sodipodi:docname="HP Graphic.svg"
   xmlns:inkscape="http://www.inkscape.org/namespaces/inkscape"
   xmlns:sodipodi="http://sodipodi.sourceforge.net/DTD/sodipodi-0.dtd"
   xmlns:xlink="http://www.w3.org/1999/xlink"
   xmlns="http://www.w3.org/2000/svg"
   xmlns:svg="http://www.w3.org/2000/svg">
  <sodipodi:namedview
     id="namedview2468"
     pagecolor="#ffffff"
     bordercolor="#666666"
     borderopacity="1.0"
     inkscape:pageshadow="2"
     inkscape:pageopacity="0.0"
     inkscape:pagecheckerboard="0"
     inkscape:document-units="mm"
     showgrid="false"
     fit-margin-top="0"
     fit-margin-left="0"
     fit-margin-right="0"
     fit-margin-bottom="0"
     inkscape:zoom="2.1719923"
     inkscape:cx="101.5197"
     inkscape:cy="154.46648"
     inkscape:window-width="1920"
     inkscape:window-height="1051"
     inkscape:window-x="-9"
     inkscape:window-y="-9"
     inkscape:window-maximized="1"
     inkscape:current-layer="g17759" />
  <defs
     id="defs2463">
    <linearGradient
       inkscape:collect="always"
       xlink:href="#linearGradient17743"
       id="linearGradient17745"
       x1="-267.46887"
       y1="-136.9622"
       x2="-283.97461"
       y2="-190.17203"
       gradientUnits="userSpaceOnUse"
       gradientTransform="translate(562.57273,214.32646)" />
    <linearGradient
       inkscape:collect="always"
       id="linearGradient17743">
      <stop
         style="stop-color:#f5973a;stop-opacity:1"
         offset="0"
         id="stop17739" />
      <stop
         style="stop-color:#fbbc3c;stop-opacity:1"
         offset="1"
         id="stop17741" />
    </linearGradient>
  </defs>
  <g
     inkscape:label="Layer 1"
     inkscape:groupmode="layer"
     id="layer1"
     transform="translate(-0.5140678,-0.50640552)">
    <g
       id="g17759"
       transform="matrix(0.30399498,0,0,0.30399498,-70.342704,5.9140415)"
       style="display:inline">
      <path
         style="display:inline;fill:url(#linearGradient17745);fill-opacity:1;fill-rule:evenodd;stroke:none;stroke-width:0.264583px;stroke-linecap:butt;stroke-linejoin:miter;stroke-opacity:1"
         d="m 247.0296,65.38979 c 0.0994,-0.15413 3.65602,-5.81364 3.65602,-5.81364 l 2.33938,-3.90644 c 0,0 3.25325,-6.55534 3.18769,-6.96762 -0.0656,-0.41227 -1.88102,-8.06371 -1.88102,-8.06371 l -0.29968,-3.54526 -1.2067,-3.78786 -1.74479,-3.90542 -4.02211,-5.23328 -3.36866,-3.583 -2.0566,-2.85576 c 0,0 -1.94683,-3.72015 -1.75696,-3.98894 0.18987,-0.2688 1.49263,-1.98337 1.49263,-1.98337 0,0 6.12858,2.60369 6.22885,2.58665 0.10026,-0.017 8.75244,2.76177 8.75244,2.76177 h 4.38489 l 4.71933,-1.43233 1.75312,-3.16754 3.23785,-16.04048 -1.17739,-5.62362 -2.37573,-4.50931 3.2987,0.83686 7.3348,8.74478 c 3.6646,5.0956 8.22738,9.43374 15.22968,11.71454 l 0.34238,0.44117 2.85063,1.46942 1.1033,0.43398 c 0,0 9.9914,-0.61425 10.2229,-0.7835 0.2315,-0.16926 8.29472,-1.19277 8.29472,-1.19277 l -3.10445,8.89278 -0.12505,8.99831 1.93279,8.25374 3.54039,6.33529 3.64271,5.57354 7.89027,7.90066 3.14517,3.82341 -4.87626,0.68512 -10.08303,0.39432 -7.27206,1.84027 -1.23677,0.87931 -2.90736,1.63658 -1.96169,1.48943 -1.47121,1.44274 -1.80235,1.87345 -1.23386,1.47054 -0.55699,0.51608 -1.67948,3.80639 -0.74008,5.35288 -0.51329,3.6183 -0.61323,3.48107 c 0,0 -1.9819,-1.23729 -2.11353,-1.42661 -0.13164,-0.18932 -4.08023,-5.77165 -4.08023,-5.77165 l -2.95567,-4.16775 -3.6151,-2.63984 -6.40876,-3.05073 -6.42845,-1.95574 -7.95449,-1.0552 -6.07519,-0.66076 -5.92126,0.0562 z"
         id="path17649"
         sodipodi:nodetypes="cccscccccccscscccccccccccccsccccccccccccccccccccccsccccccccc" />
      <path
         id="path17642"
         style="display:inline;fill:#231f20;stroke-width:0.226801;fill-opacity:1"
         d="m 267.51831,-17.78857 c -0.39805,3.62295 -0.9984,1.45516 -3.21169,1.32292 -1.26342,4.64358 2.31559,10.03195 2.51509,15.22388 0.25295,5.27722 1.16854,11.95645 -2.55695,15.89928 -7.25475,3.60689 -15.38443,-0.48245 -21.89117,-4.17184 -1.5711,-1.67963 -10.46265,-6.25816 -6.67505,-1.13843 0.95547,1.07536 2.18422,2.39812 2.06241,2.50941 -0.22479,0.20539 -2.47579,-1.47643 -3.78168,-1.69602 -0.75107,-0.1263 -0.98246,0.52199 -0.86507,1.54719 7.2874,6.93933 14.0641,13.77274 20.04219,22.23947 0.55468,0.64635 1.42295,1.96931 2.00556,2.62 0.26275,0.29343 0.58286,0.24822 0.62426,0.23823 -0.16449,-1.18354 -0.76697,-2.19487 -1.27356,-3.2584 0.30885,0.56396 0.64167,1.46135 0.97003,1.63885 0.43194,0.23349 0.65363,-0.8559 0.68077,-1.07383 -2.25123,-5.71913 -6.44881,-10.68961 -9.90741,-15.80885 5.96981,1.47941 13.31667,4.17968 19.40553,-1.911 5.98044,-4.7378 5.69592,-14.15395 5.03019,-21.74647 3.06468,2.83157 7.76125,8.53018 11.87266,10.12858 4.99382,3.02222 12.25167,5.16574 17.26974,1.1839 -0.0429,-0.36879 -0.1443,-0.65645 -0.29403,-0.87798 -0.24619,-0.3642 -1.51465,0.60494 -1.97818,0.53744 -0.27539,-0.0401 0.37283,-1.38607 0.0486,-1.33377 -1.53395,0.24743 -2.36693,1.55081 -4.94957,1.57871 -9.78659,-2.83248 -11.74938,-8.2588 -16.25431,-13.71699 -3.1479,-2.84618 -4.96595,-9.34378 -8.88834,-9.93428 z m 2.03191,6.29316 c 0.39812,10e-6 3.30998,4.03566 4.27416,5.33507 0.73786,0.90771 3.16164,3.76956 3.11144,3.82096 -0.16528,0.16926 -5.80664,-5.79948 -6.18618,-6.47868 -0.9809,-1.52001 -1.31771,-2.56296 -1.2299,-2.66443 0.007,-0.009 0.0176,-0.0129 0.0305,-0.0129 z m -1.82572,1.64227 c 0.46067,0.0131 1.51141,4.63709 1.62108,6.91483 0.32821,6.81642 -0.85891,-2.09798 -1.32136,-3.90416 -0.47779,-2.19119 -0.49423,-3.0162 -0.29972,-3.01067 z m 52.62211,10.0335 c -0.39829,0.008 -0.97642,0.23141 -1.80403,0.78031 -5.26488,3.12626 -9.9595,6.54712 -16.63878,7.81296 -3.56212,0.69101 -9.96068,1.33004 -10.7642,-0.33899 -0.1341,-0.27932 -0.60218,-0.10698 -0.98547,-0.0548 -0.37436,0.051 -0.38641,0.40017 -0.71726,0.36897 -0.42388,-0.0399 -0.65764,-0.54529 -0.96222,-0.54829 -0.97827,-0.01 -1.354,0.77948 -0.005,2.32079 6.87075,2.63234 14.81292,2.75226 21.65449,0.19689 1.41238,-0.35766 1.69252,-0.52594 2.33888,-0.65526 -0.28339,0.69154 -0.84768,2.64725 -1.28571,4.24522 -2.04415,7.28141 -0.50899,13.08549 2.5616,21.65346 2.69901,5.82127 7.42363,13.59507 13.69374,18.5446 -1.74782,0.24411 -3.93293,0.16691 -5.57641,0.38086 -9.36445,1.20063 -20.37883,4.86388 -26.2046,14.09216 -1.31021,1.44582 -3.16961,11.4245 -0.54777,8.38502 0.49558,-1.86984 1.18185,-4.59855 1.32447,-4.56665 0.15967,0.0357 0.26948,1.21999 -0.14935,2.62258 -0.54887,1.8381 -1.06905,4.50639 -0.97565,5.44721 -10.28852,-11.92418 -26.45031,-16.5153 -43.20201,-16.62069 2.59586,-5.32004 5.53578,-10.92196 4.91443,-17.2899 -0.24934,-3.61451 -1.6791,-6.89633 -2.71922,-9.30537 -1.77624,-3.14328 -4.27871,-5.39606 -6.86624,-7.54424 -0.42818,-0.0414 -0.9892,-0.10939 -0.82269,0.40101 0.50929,1.56107 3.0528,3.16866 4.70669,5.64358 -0.52658,-0.009 -3.91991,-3.89474 -5.17488,-3.51865 -0.23599,0.7252 0.044,0.5639 0.22221,0.92914 4.43875,3.47956 7.62942,6.95644 7.7525,11.83804 0.14328,5.68327 -3.43335,13.28758 -9.04855,19.26136 -0.68519,0.72895 -1.44807,1.24292 -2.08618,2.00556 -0.56788,0.54127 -0.88866,0.89124 -0.87126,1.31568 0.0277,0.67464 0.73792,1.24913 1.36529,0.89607 0.68405,-0.38496 1.56991,-1.11814 2.29753,-1.48053 0.56913,-0.28341 1.02718,-0.22462 1.31052,-0.35967 -1.24243,1.55244 -2.78885,2.01647 -2.75435,3.58066 0.45361,0.54316 1.72574,0.0779 3.80338,-0.59221 6.03832,-1.87591 13.0498,-1.94539 19.28203,-1.37924 9.56488,0.44564 18.74928,6.37888 24.22591,15.61506 1.4412,2.16426 4.45884,12.36771 5.81308,5.76089 4.22353,5.29918 3.05719,-3.86341 2.99878,-7.51117 0.18209,-5.35222 1.5483,-12.59524 6.06113,-14.92467 0.5698,-3.12014 -6.30716,1.89381 -7.47086,3.55431 -0.42802,-1.65751 3.67158,-6.42359 5.69371,-7.75405 2.83907,-1.65878 6.80139,-2.62534 9.95391,-3.14761 6.54765,-0.89599 12.58112,-0.38852 18.98335,0.37672 6.49393,1.00527 6.4674,-3.63545 -0.18242,-8.46047 -6.30477,-4.07269 -11.53916,-10.2764 -15.67398,-17.08681 -3.19726,-5.05619 -4.31397,-11.70522 -2.32751,-17.63355 1.18592,-5.60676 5.39641,-9.75048 7.89306,-13.81672 1.2578,-1.59933 -0.21866,-1.19569 -1.50534,-0.83923 -0.48392,0.13407 -1.20825,0.59749 -1.36167,0.45682 -0.24256,-0.22239 0.52954,-0.68209 0.59325,-1.15084 0.12208,-0.89808 0.11606,-1.92375 -0.76017,-1.90634 z m -78.43863,12.64316 c 0.52044,0.0247 1.89588,1.1713 3.78737,2.05517 3.14585,1.47 7.33175,2.97361 8.74107,3.25406 -2.77715,-0.18127 -10.61193,-2.19425 -12.74754,-5.13043 0.0249,-0.13083 0.099,-0.18451 0.2191,-0.1788 z m -0.13098,3.08893 c 5.11104,5.10604 9.18651,11.30095 12.68967,17.54364 0.0267,0.0481 0.0369,0.071 0.0322,0.0715 -0.006,6.4e-4 -0.0482,-0.0283 -0.0878,-0.10339 -3.58986,-6.16711 -9.31039,-11.89455 -12.63406,-17.51176 z m 10.59184,42.86898 c 0.0791,0.35287 -1.15036,2.55741 -3.12849,5.62395 -0.46288,-0.0326 -0.44262,0.032 -0.76997,-0.0594 1.55142,-2.5676 2.68465,-3.74113 3.89846,-5.56452 z m 0.43527,7.51934 c 1.05941,0.003 3.21651,0.11897 2.36405,0.33962 -0.31164,0.0399 -4.06257,0.3027 -5.1816,0.40256 0.71093,-0.79094 1.77704,-0.71838 2.81755,-0.74218 z m 45.51025,10.78756 c 0.0166,-0.002 0.0284,0.0157 0.0351,0.0548 0.0459,0.26868 -0.67271,5.18527 -0.59221,6.93498 -0.46066,0.24589 -0.6178,-0.14907 -0.73897,-0.38964 -0.234,-2.1216 1.04685,-6.56819 1.29604,-6.60011 z m -7.32979,2.18901 c 0.002,-0.003 0.007,-0.003 0.014,0 0.34125,0.14862 3.27863,3.86553 3.81579,5.16299 -0.12194,1.04936 -0.78368,-0.30154 -0.84078,-0.42529 -0.67973,-1.61019 -3.05459,-4.64267 -2.98896,-4.7377 z"
         sodipodi:nodetypes="scccccssccsccsccccccssscccscscsssccsscccsscccccccccccscccccscccssccssccccccccccccccccssssssccscccccscccsccssscsscccssccccccc" />
    </g>
  </g>
</svg>
